Plot.

When 3 muppet fans learn that Tex Richman wants to drill under the muppet theater for oil Gary, Mary and Walter set out to find the muppets who have been split up for years so that they can put on one last show and save the muppet theater. Kermit now lives in his own mansion depressed in Hollywood, Gonzo is a high class plumber at Gonzo's Royal Flush, Fozzie performs with a tribute band called The Moopets , Miss Piggy is the plus-size fashion editor at Vogue Paris, and Animal is at a celebrity anger management rehab center in Santa Barbara


General.

Complete name                    : The Muppets[2011]ENG[BRRip]XviD-{RedDragon}.avi
Format                           : .avi
Format profile                   : Base Media / Version 2
Codec ID                         : mp42
File size                        : 751 MiB
Duration                         : 1h 42mn
Overall bit rate                 : 1 023 Kbps
Encoded date                     : UTC 2012-03-08 03:45:38
IMDB Link                           : http://www.imdb.com/title/tt1204342/
IMDB Rating                       : 7.7/10


Video.

ID                               : 1
Format                           : AVC
Format/Info                      : Advanced Video Codec
Format profile                   : Main@L3.0
Format settings, CABAC           : Yes
Format settings, ReFrames        : 4 frames
Codec ID                         : avc1
Codec ID/Info                    : Advanced Video Coding
Duration                         : 1h 42mn
Bit rate mode                    : Variable
Bit rate                         : 857 Kbps
Width                            : 640 pixels
Height                           : 352 pixels
Display aspect ratio             : 16:9
Frame rate mode                  : Variable
Frame rate                       : 23.976 fps
Minimum frame rate               : 23.974 fps
Maximum frame rate               : 48.754 fps
Color space                      : YUV
Chroma subsampling               : 4:2:0
Bit depth                        : 8 bits
Scan type                        : Progressive
Bits/(Pixel*Frame)               : 0.159
Stream size                      : 630 MiB (84%)
Writing library                  : x264 core 112


Audio.

ID                               : 2
Format                           : AAC
Format/Info                      : Advanced Audio Codec
Format version                   : Version 4
Format profile                   : LC
Format settings, SBR             : No
Codec ID                         : 40
Duration                         : 1h 42mn
Bit rate mode                    : Variable
Bit rate                         : 160 Kbps
Maximum bit rate                 : 201 Kbps
Channel(s)                       : 2 channels
Channel positions                : Front: L R
Sampling rate                    : 48.0 KHz
Stream size                      : 117 MiB (16%)
Encoded date                     : UTC 2012-03-08 03:45:38
Tagged date                      : UTC 2012-03-08 04:34:44